Spartacus (1960)

Director: Stanley Kubrick

Spartacus is a 1960 American historical drama film directed by Stanley Kubrick and based on the novel of the same name by Howard Fast. The life story of the historical figure of Spartacus and the events of the Third Servile War were adapted by Dalton Trumbo as a screenplay. The film stars Kirk Douglas as rebellious slave Spartacus and Laurence Olivier as his foe, the Roman general and politician Marcus Licinius Crassus. The film also stars Peter Ustinov (who won an Academy Award for Best Supporting Actor for his role as slave trader Lentulus Batiatus), John Gavin (as Julius Caesar), Jean Simmons, Charles Laughton, John Ireland, Herbert Lom, Woody Strode, Tony Curtis, John Dall and Charles McGraw. The titles were designed by Saul Bass. Anthony Mann, the film's original director, was replaced by Douglas with Kubrick after the first week of shooting.

Spartacus was filmed using the 35 mm Technirama format and then blown up to 70 mm film. This was a change for Kubrick, who preferred using square-format ratios. Kubrick found working outdoors or in real locations to be distracting and thus preferred to film in the studio. He believed the actors would benefit more from working on a sound stage, where they could fully concentrate. To create the illusion of the large crowds that play such an essential role in the film, Kubrick's crew used three-channel sound equipment to record 76,000 spectators at a Michigan State – Notre Dame college football game shouting "Hail, Crassus!" and "I'm Spartacus!"

The intimate scenes were filmed in Hollywood, but Kubrick insisted that all battle scenes be filmed on a vast plain outside Madrid. Eight thousand trained soldiers from the Spanish infantry were used to double as the Roman army. Kubrick directed the armies from the top of specially constructed towers. However, he eventually had to cut all but one of the gory battle scenes, due to negative audience reactions at preview screenings.

Media Info:
General
Complete name                    : J:\Seeding\Spartacus (1960)[DVDRip][big_dad_e™]\Spartacus (1960)[DVDRip][big_dad_e™].AVI
Format                           : AVI
Format/Info                      : Audio Video Interleave
File size                        : 2.50 GiB
Duration                         : 3h 16mn
Overall bit rate                 : 1 823 Kbps

Video
ID                               : 0
Format                           : MPEG-4 Visual
Format profile                   : Simple@L3
Format settings, BVOP            : No
Format settings, QPel            : No
Format settings, GMC             : No warppoints
Format settings, Matrix          : Default (H.263)
Codec ID                         : XVID
Codec ID/Hint                    : XviD
Duration                         : 3h 16mn
Bit rate                         : 1 489 Kbps
Width                            : 718 pixels
Height                           : 290 pixels
Display aspect ratio             : 2.2:1
Frame rate                       : 29.970 fps
Color space                      : YUV
Chroma subsampling               : 4:2:0
Bit depth                        : 8 bits
Scan type                        : Progressive
Bits/(Pixel*Frame)               : 0.239
Stream size                      : 2.05 GiB (82%)
Writing library                  : XviD 1.1.2 (UTC 2006-11-01)

Audio
ID                               : 1
Format                           : MPEG Audio
Format version                   : Version 1
Format profile                   : Layer 3
Mode                             : Joint stereo
Codec ID                         : 55
Codec ID/Hint                    : MP3
Duration                         : 3h 16mn
Bit rate mode                    : Constant
Bit rate                         : 320 Kbps
Channel(s)                       : 2 channels
Sampling rate                    : 48.0 KHz
Stream size                      : 450 MiB (18%)
Alignment                        : Split accross interleaves
Interleave, duration             : 24 ms (0.72 video frame)
Writing library                  : LAME3.98

File Scan:
Malwarebytes' Anti-Malware 1.50.1.1100
www.malwarebytes.org

Database version: 5468

1/6/2011 2:08:00 AM
mbam-log-2011-01-06 (02-08-00).txt

Scan type: Quick scan
Objects scanned: 5
Time elapsed: 17 second(s)

Memory Processes Infected: 0
Memory Modules Infected: 0
Registry Keys Infected: 0
Registry Values Infected: 0
Registry Data Items Infected: 0
Folders Infected: 0
Files Infected: 0

Memory Processes Infected:
(No malicious items detected)

Memory Modules Infected:
(No malicious items detected)

Registry Keys Infected:
(No malicious items detected)

Registry Values Infected:
(No malicious items detected)

Registry Data Items Infected:
(No malicious items detected)

Folders Infected:
(No malicious items detected)

Files Infected:
(No malicious items detected)

When using TPB please read these important notes:
  
01- Anti-malware apps may warn about keygens, patches, cracks, etc., because of 
    their capabilities, (generating codes, etc.). Sometimes they're added to 
    the virus/spyware database and will be detected as malware. If you don't trust
    the keygens, patches, cracks, etc., don't use them. 
    
02- Before running .exe-files, keygens, patches, cracks, etc., always check first 
    if they can be unpacked. Often some third party added a virus to the 
    original file, repacked it and uploaded it again.

03- Letting anti-malware apps send scan results to their companies can cause
    keygens, patches, cracks, etc., to be added to their virus-database.

04- Firewalls which are set to automatically determine connections will allow 
    apps & malware!. Avoid this by manually configuring your firewall.

05- Usually (new) torrents with many downloads and seeders in a brief period is
    suspicious! Torrents with the Skull & Crossbones icon are trusted.

06- Some people use multiple accounts and post fake comments 
    and/or files trying to spread confusion. They seldom seriously
    comment or have any torrents, or a just a few to look passable.

07- Clicking on unknown links can cause malware to be installed on your machine.
  
08- In general often there are more fake and negative comments than reliable and
    positive comments.

09- In some countries uploading/downloading copyright protected material is 
    forbidden, but showing some appreciation to reliable up-loaders is not.

10- Posting fake and negative comments or fake/infected uploads on TPB can result
    in getting banned from TPB!

Requests?  Find me on SuprBay. http://forum.suprbay.org/member.php?action=profile&uid=91870
 

For reporting bad or suspicious torrents:  
http://forum.suprbay.org/forumdisplay.php?fid=29

For more of my torrents: 
https://thepiratebay.org/user/big_dad_e/  (Secured)

All torrents scanned with:
Norton Anti-virus
Malwarebytes' Anti-malware
 
http://www.pirate-party.us/

ALWAYS SEED & THANKS SEEDERS!